<?xml version="1.0" standalone="no"?>
<!DOCTYPE svg PUBLIC "-//W3C//DTD SVG 20010904//EN"
 "http://www.w3.org/TR/2001/REC-SVG-20010904/DTD/svg10.dtd">
<svg version="1.0" xmlns="http://www.w3.org/2000/svg"
 width="467.000000pt" height="61.000000pt" viewBox="0 0 467.000000 61.000000"
 preserveAspectRatio="xMidYMid meet">

<g transform="translate(0.000000,61.000000) scale(0.100000,-0.100000)"
fill="#000000" stroke="none">
<path d="M70 391 c0 -121 -3 -227 -6 -236 -4 -8 -19 -22 -35 -31 -26 -13 -29
-20 -29 -64 0 -47 1 -50 27 -50 38 0 110 46 130 83 16 27 18 66 21 275 l3 242
-55 0 -56 0 0 -219z"/>
<path d="M201 468 c1 -201 13 -358 30 -392 35 -71 141 -98 218 -56 75 43 91
113 91 398 l0 192 -54 0 -54 0 -4 -217 c-3 -185 -6 -223 -21 -251 -24 -45 -53
-43 -75 6 -13 29 -17 80 -20 250 l-4 212 -54 0 -54 0 1 -142z"/>
<path d="M560 305 l0 -305 100 0 100 0 0 55 0 55 -45 0 -45 0 0 250 0 250 -55
0 -55 0 0 -305z"/>
<path d="M790 305 l0 -305 55 0 55 0 0 305 0 305 -55 0 -55 0 0 -305z"/>
<path d="M959 308 l-45 -303 49 -3 c27 -2 51 -1 54 2 3 2 7 23 10 45 6 41 6
41 49 41 l43 0 7 -45 6 -45 54 0 c30 0 54 2 54 5 0 8 -79 533 -86 573 l-6 32
-72 0 -72 0 -45 -302z m131 27 c6 -50 13 -102 15 -117 4 -25 2 -28 -25 -28
-17 0 -30 5 -30 13 0 24 23 227 26 224 1 -1 8 -43 14 -92z"/>
<path d="M1250 305 l0 -305 50 0 50 0 1 143 1 142 47 -140 48 -140 56 -3 57
-3 0 306 0 305 -55 0 -55 0 0 -152 c0 -84 -4 -146 -9 -138 -4 8 -25 77 -47
152 l-39 138 -52 0 -53 0 0 -305z"/>
<path d="M1800 305 l0 -305 55 0 55 0 0 99 0 99 33 6 c91 17 140 88 141 202 1
62 -3 77 -29 119 -41 66 -81 85 -177 85 l-78 0 0 -305z m159 169 c40 -51 20
-164 -30 -164 -17 0 -19 8 -19 95 0 105 10 119 49 69z"/>
<path d="M2149 308 l-44 -303 49 -3 c55 -4 66 5 66 56 0 31 1 32 44 32 l45 0
7 -45 6 -45 54 0 c30 0 54 4 54 8 0 9 -76 519 -85 570 l-6 32 -72 0 -73 0 -45
-302z m135 2 c4 -41 10 -85 13 -97 5 -20 1 -23 -27 -23 l-33 0 6 48 c4 26 10
78 13 116 8 82 18 67 28 -44z"/>
<path d="M2450 555 l0 -55 55 0 55 0 0 -250 0 -250 55 0 55 0 0 250 0 250 55
0 55 0 0 55 0 55 -165 0 -165 0 0 -55z"/>
<path d="M2830 555 l0 -55 60 0 60 0 0 -250 0 -250 55 0 55 0 0 250 0 250 55
0 55 0 0 55 0 55 -170 0 -170 0 0 -55z"/>
<path d="M3210 305 l0 -305 105 0 105 0 0 55 0 55 -50 0 -50 0 0 70 0 70 50 0
50 0 0 55 0 55 -45 0 -45 0 0 70 0 70 45 0 45 0 0 55 0 55 -105 0 -105 0 0
-305z"/>
<path d="M3450 306 l0 -306 55 0 55 0 0 100 c0 79 3 100 14 100 9 0 22 -33 38
-98 l24 -97 63 -3 c160 -8 270 77 271 209 0 58 -27 100 -98 153 -42 32 -52 45
-50 64 4 34 47 63 102 69 l46 6 0 53 c0 50 -2 54 -24 54 -47 0 -128 -34 -172
-73 -25 -22 -46 -38 -47 -36 -2 2 -9 17 -17 32 -27 55 -65 72 -167 75 l-93 4
0 -306z m165 164 c22 -42 19 -102 -6 -134 -39 -50 -49 -36 -49 69 0 88 1 95
20 95 11 0 26 -12 35 -30z m243 -258 c5 -33 -16 -62 -61 -83 -71 -32 -80 -28
-100 45 l-17 65 25 37 c14 20 25 41 25 46 0 18 125 -89 128 -110z"/>
<path d="M4115 601 c-37 -16 -75 -67 -97 -127 -17 -47 -21 -82 -21 -169 0
-132 23 -210 78 -265 31 -31 41 -35 86 -35 46 0 54 3 89 42 53 56 74 130 74
258 0 127 -21 202 -72 257 -29 30 -46 40 -77 43 -22 3 -49 1 -60 -4z m80 -147
c17 -32 20 -58 19 -154 -1 -131 -17 -190 -54 -190 -60 0 -82 272 -29 359 24
40 38 37 64 -15z"/>
<path d="M4350 305 l0 -305 55 0 55 0 1 143 1 142 45 -142 46 -143 59 0 58 0
0 305 0 305 -60 0 -59 0 -3 -142 -3 -143 -41 140 -41 140 -56 3 -57 3 0 -306z"/>
</g>
</svg>
