<?xml version="1.0" standalone="no"?>
<!DOCTYPE svg PUBLIC "-//W3C//DTD SVG 20010904//EN"
 "http://www.w3.org/TR/2001/REC-SVG-20010904/DTD/svg10.dtd">
<svg version="1.0" xmlns="http://www.w3.org/2000/svg"
 width="900.000000pt" height="540.000000pt" viewBox="0 0 900.000000 540.000000"
 preserveAspectRatio="xMidYMid meet">

<g transform="translate(0.000000,540.000000) scale(0.100000,-0.100000)"
fill="#000000" stroke="none">
<path d="M4320 5394 c-458 -34 -914 -189 -1285 -437 -303 -202 -586 -492 -783
-803 -197 -311 -332 -698 -383 -1099 -19 -144 -16 -492 5 -640 70 -489 245
-908 544 -1295 85 -109 333 -357 442 -442 378 -292 789 -467 1260 -539 191
-29 534 -32 715 -5 380 55 703 165 999 341 574 340 999 879 1191 1510 72 239
103 434 111 705 5 164 3 221 -15 357 -60 461 -196 830 -442 1193 -420 622
-1081 1029 -1839 1135 -114 16 -414 27 -520 19z m1551 -1841 c126 -62 219
-185 273 -359 42 -138 48 -200 44 -474 -4 -223 -7 -265 -26 -331 -64 -224
-171 -359 -337 -421 -60 -23 -64 -23 -692 -26 l-633 -3 0 -59 0 -60 408 0 409
0 6 -177 c11 -284 -6 -341 -124 -428 -148 -109 -441 -166 -774 -151 -327 14
-535 82 -653 211 -89 99 -87 81 -90 575 -2 280 1 458 8 500 23 140 101 244
226 301 106 48 152 52 664 54 495 2 506 3 610 47 55 23 143 111 178 176 55
103 62 150 62 420 l0 244 188 -4 188 -3 65 -32z"/>
<path d="M4905 1601 c-111 -50 -110 -208 1 -262 70 -33 136 -15 186 52 50 67
22 171 -56 208 -52 26 -79 26 -131 2z"/>
</g>
</svg>
